<svg width="2425" height="2677" viewBox="0 0 2425 2677" fill="none" xmlns="http://www.w3.org/2000/svg">
<g clip-path="url(#clip0_101_3)">
<rect x="-929.27" y="-1159.87" width="4093.58" height="4093.58" fill="url(#paint0_linear_101_3)"/>
<rect x="-929.27" y="-1159.87" width="4093.58" height="4093.58" fill="#E8EEF9"/>
<path d="M257.031 2388C257.031 2388 -2.84439 1783.61 458.456 1628.3C541.832 1600.22 602.429 1611.55 661.564 1622.87C742.448 1638.35 820.607 1653.84 950.584 1568.52C1047.25 1505.07 997.739 1382.69 1259.42 1290.47C1588.13 1174.62 2078.48 1323.46 2094.55 1679.93C2099.33 1786.3 2008.94 1882.97 2161.07 2080.59C2242.8 2186.78 2221.84 2350.75 2177.18 2381.68L257.031 2388Z" fill="#E8EEF9"/>
<path d="M220.957 2385.02C214.148 2393.81 317.195 2397.92 511.693 2402.91C810.258 2410.56 938.064 2411.54 1265.79 2413.78C1488.22 2415.29 2216.73 2408.99 2215.7 2394.38C2215.7 2394.38 2241.32 2377.31 2036.54 2370.79C1840.74 2364.56 1493.57 2363.11 1376.81 2366.04C1260.05 2368.97 762.822 2361.08 624.24 2360.43C363.15 2359.21 228.605 2375.15 220.957 2385.02Z" fill="#D2DAF2"/>
<path d="M1301.51 1338.67V1771.17H1843.02V1338.67H1301.51Z" fill="#FCFDFD"/>
<path d="M1840.17 1338.67V1768.67H1304.36V1338.67H1301.51V1771.17H1843.02V1338.67H1840.17Z" fill="#84908C"/>
<path d="M1851.34 1338.67H1290.48V1307.22H1851.34V1338.67Z" fill="#354F60"/>
<path d="M1304.17 1338.67L1840.39 1391.3L1840.11 1338.67H1304.17Z" fill="#E3E3E2"/>
<path d="M1796.62 1402.89H1674.72V1400.79H1796.62V1402.89Z" fill="#35555F"/>
<path d="M1796.62 1410.22H1674.72V1408.12H1796.62V1410.22Z" fill="#35555F"/>
<path d="M1366.84 1692.96C1366.43 1692.96 1366.09 1635.41 1366.09 1564.44C1366.09 1493.44 1366.43 1435.9 1366.84 1435.9C1367.24 1435.9 1367.58 1493.44 1367.58 1564.44C1367.58 1635.41 1367.24 1692.96 1366.84 1692.96Z" fill="#1D2A30"/>
<path d="M1412.51 1708.84C1412.51 1709.26 1406.5 1709.58 1399.1 1709.58C1391.69 1709.58 1385.69 1709.26 1385.69 1708.84C1385.69 1708.43 1391.69 1708.1 1399.1 1708.1C1406.5 1708.1 1412.51 1708.43 1412.51 1708.84Z" fill="#35555F"/>
<path d="M1457 1709.65C1457 1710.06 1449.82 1710.39 1440.97 1710.39C1432.12 1710.39 1424.94 1710.06 1424.94 1709.65C1424.94 1709.24 1432.12 1708.91 1440.97 1708.91C1449.82 1708.91 1457 1709.24 1457 1709.65Z" fill="#35555F"/>
<path d="M1494.96 1709.65C1494.96 1710.06 1487.77 1710.39 1478.93 1710.39C1470.08 1710.39 1462.9 1710.06 1462.9 1709.65C1462.9 1709.24 1470.08 1708.91 1478.93 1708.91C1487.77 1708.91 1494.96 1709.24 1494.96 1709.65Z" fill="#35555F"/>
<path d="M1532.91 1709.65C1532.91 1710.06 1525.73 1710.39 1516.87 1710.39C1508.02 1710.39 1500.84 1710.06 1500.84 1709.65C1500.84 1709.24 1508.02 1708.91 1516.87 1708.91C1525.73 1708.91 1532.91 1709.24 1532.91 1709.65Z" fill="#35555F"/>
<path d="M1570.85 1709.65C1570.85 1710.06 1563.68 1710.39 1554.83 1710.39C1545.97 1710.39 1538.79 1710.06 1538.79 1709.65C1538.79 1709.24 1545.97 1708.91 1554.83 1708.91C1563.68 1708.91 1570.85 1709.24 1570.85 1709.65Z" fill="#35555F"/>
<path d="M1608.8 1709.65C1608.8 1710.06 1601.62 1710.39 1592.77 1710.39C1583.91 1710.39 1576.74 1710.06 1576.74 1709.65C1576.74 1709.24 1583.91 1708.91 1592.77 1708.91C1601.62 1708.91 1608.8 1709.24 1608.8 1709.65Z" fill="#35555F"/>
<path d="M1646.74 1709.65C1646.74 1710.06 1639.57 1710.39 1630.71 1710.39C1621.86 1710.39 1614.69 1710.06 1614.69 1709.65C1614.69 1709.24 1621.86 1708.91 1630.71 1708.91C1639.57 1708.91 1646.74 1709.24 1646.74 1709.65Z" fill="#35555F"/>
<path d="M1684.7 1709.65C1684.7 1710.06 1677.52 1710.39 1668.67 1710.39C1659.81 1710.39 1652.64 1710.06 1652.64 1709.65C1652.64 1709.24 1659.81 1708.91 1668.67 1708.91C1677.52 1708.91 1684.7 1709.24 1684.7 1709.65Z" fill="#35555F"/>
<path d="M1722.65 1709.65C1722.65 1710.06 1715.46 1710.39 1706.62 1710.39C1697.76 1710.39 1690.58 1710.06 1690.58 1709.65C1690.58 1709.24 1697.76 1708.91 1706.62 1708.91C1715.46 1708.91 1722.65 1709.24 1722.65 1709.65Z" fill="#35555F"/>
<path d="M1760.59 1709.65C1760.59 1710.06 1753.42 1710.39 1744.57 1710.39C1735.71 1710.39 1728.53 1710.06 1728.53 1709.65C1728.53 1709.24 1735.71 1708.91 1744.57 1708.91C1753.42 1708.91 1760.59 1709.24 1760.59 1709.65Z" fill="#35555F"/>
<path d="M1405.29 1678.84H1386.74V1529.1H1405.29V1678.84Z" fill="#F25A51"/>
<path d="M1441.11 1678.85H1422.56V1482.66H1441.11V1678.85Z" fill="#F25A51"/>
<path d="M1476.93 1679.93H1458.38V1562.47H1476.93V1679.93Z" fill="#F25A51"/>
<path d="M1512.75 1678.85H1494.2V1510.15H1512.75V1678.85Z" fill="#F25A51"/>
<path d="M1548.58 1678.84H1530.03V1542.87H1548.58V1678.84Z" fill="#F25A51"/>
<path d="M1584.4 1678.84H1565.84V1515.31H1584.4V1678.84Z" fill="#F25A51"/>
<path d="M1620.22 1678.85H1601.66V1488.21H1620.22V1678.85Z" fill="#F25A51"/>
<path d="M1656.04 1678.85H1637.48V1522.58H1656.04V1678.85Z" fill="#F25A51"/>
<path d="M1691.86 1678.85H1673.3V1495.12H1691.86V1678.85Z" fill="#F25A51"/>
<path d="M1727.68 1678.85H1709.12V1503.08H1727.68V1678.85Z" fill="#F25A51"/>
<path d="M1763.5 1678.84H1744.96V1479.76H1763.5V1678.84Z" fill="#F25A51"/>
<path d="M1363.95 1435.9H1366.84V1699.93H1363.95V1435.9Z" fill="#35555F"/>
<path d="M1346.88 1691.51V1694.41H1781.33V1691.51H1346.88Z" fill="#35555F"/>
<path d="M1097.26 2325.18C1097.89 2331.12 1098.98 2340.69 1099.62 2343.13C1100.53 2346.74 1131.33 2343.98 1131.33 2343.98C1131.33 2343.98 1130.52 2335.69 1130.09 2327.54C1120.73 2329.42 1104.53 2326.66 1097.26 2325.18Z" fill="#F9AB77"/>
<path d="M1123.96 2332.25C1115.77 2328.04 1105.96 2331.49 1101.13 2339.81C1097.89 2345.4 1093.71 2353.42 1091 2361.73C1086.01 2377.01 1081.89 2389.86 1097.19 2395.83C1112.49 2401.79 1135.87 2396.76 1137.41 2387.07C1138.96 2377.38 1134.1 2347.01 1130.15 2338.44C1128.88 2335.68 1126.64 2333.64 1123.96 2332.25Z" fill="#1F345F"/>
<path d="M1137.41 2387.07C1138.05 2383.08 1137.6 2375.58 1136.57 2367.53C1137.27 2389.54 1124.34 2393.78 1105.35 2391.73C1086.51 2389.69 1087.58 2373.41 1087.6 2373.14C1085.19 2383.26 1085.89 2391.43 1097.18 2395.83C1112.49 2401.79 1135.86 2396.76 1137.41 2387.07Z" fill="#201E26"/>
<path d="M1121.21 2356.98H1105C1104.6 2356.98 1104.27 2356.65 1104.27 2356.25V2354.86C1104.27 2354.45 1104.6 2354.13 1105 2354.13H1121.21C1121.61 2354.13 1121.94 2354.45 1121.94 2354.86V2356.25C1121.94 2356.65 1121.61 2356.98 1121.21 2356.98Z" fill="#201E26"/>
<path d="M1123.98 2365.39H1101.31C1100.74 2365.39 1100.27 2364.92 1100.27 2364.34V2362.36C1100.27 2361.79 1100.74 2361.32 1101.31 2361.32H1123.98C1124.55 2361.32 1125.02 2361.79 1125.02 2362.36V2364.34C1125.02 2364.92 1124.55 2365.39 1123.98 2365.39Z" fill="#201E26"/>
<path d="M1243.46 1826.69C1243.38 1826.8 1243.29 1826.91 1243.19 1827C1240.84 1830.46 1237.37 1833.16 1233.16 1834.48C1217.41 1839.45 1188.26 1846.37 1148.04 1846.37C1102.25 1846.37 1074.2 1839.69 1059.69 1834.75C1054.44 1832.95 1050.43 1828.93 1048.53 1823.95C1039.69 1844.93 1041.59 1950.62 1050.27 2038.21C1061.25 2148.93 1080.5 2270.27 1082.68 2289.18C1084.85 2308.09 1087.88 2323.14 1094.82 2324.67C1101.78 2326.21 1134.37 2332.63 1136.97 2322.91C1139.58 2313.2 1144.8 2142.33 1147.39 2076.2C1150.01 2010.06 1147.39 1948.72 1150.87 1949.24C1154.35 1949.75 1169.77 2059.14 1174.98 2080.61C1180.19 2102.08 1174.66 2163.81 1169.77 2219.02C1164.88 2274.23 1158.78 2303.18 1159.87 2310.59C1160.96 2318 1173.9 2320.83 1178.24 2322.1C1182.58 2323.38 1195.18 2328.24 1200.4 2319.55C1205.61 2310.86 1241.24 2205.34 1252.53 2134.8C1263.81 2064.25 1260.79 1998.2 1258.17 1959.87C1256.13 1929.83 1247.22 1859.69 1243.46 1826.69Z" fill="#201E26"/>
<path d="M1178.24 2322.1C1175.21 2321.22 1168.02 2319.57 1163.56 2316.15C1162.56 2319.28 1161.37 2323 1160.47 2325.66C1160.96 2326.1 1161.2 2326.75 1161.16 2327.4C1161.06 2328.98 1161.43 2332.12 1165.62 2333.72C1170.71 2335.66 1177.96 2333.82 1183.61 2336.9C1185.18 2333.11 1187.17 2328.37 1188.91 2324.56C1184.59 2324.26 1180.4 2322.74 1178.24 2322.1Z" fill="#F9AB77"/>
<path d="M1160.42 2325.6C1160.95 2326.03 1161.2 2326.71 1161.16 2327.4C1161.06 2328.98 1161.43 2332.12 1165.62 2333.72C1171.35 2335.91 1179.85 2333.28 1185.68 2338.33C1191.53 2343.38 1189.02 2357.62 1192.7 2368.6C1196.37 2379.58 1205.92 2388.63 1193.72 2392.71C1181.54 2396.77 1169.78 2387.12 1163.17 2379.43C1156.56 2371.74 1142.76 2353.22 1142.24 2347C1141.73 2340.96 1143.34 2337.79 1147.16 2333.57C1150.75 2329.6 1155.82 2321.88 1160.42 2325.6Z" fill="#1F345F"/>
<path d="M1193.72 2392.71C1198.87 2390.98 1200.13 2388.38 1199.61 2385.12C1181.1 2404.46 1156.49 2367.14 1149.17 2355.8C1142.24 2345.09 1143.46 2339.09 1143.62 2338.43C1142.4 2340.83 1141.93 2343.4 1142.24 2347C1142.76 2353.22 1156.56 2371.74 1163.17 2379.43C1169.78 2387.12 1181.54 2396.77 1193.72 2392.71Z" fill="#201E26"/>
<path d="M1190.83 2359.67L1183.41 2361.59C1182.63 2361.8 1182.14 2362.62 1182.34 2363.43C1182.54 2364.23 1183.34 2364.72 1184.13 2364.52L1191.27 2362.67C1191.1 2361.67 1190.96 2360.68 1190.83 2359.67Z" fill="#201E26"/>
<path d="M1192.69 2368.6C1192.54 2368.12 1192.4 2367.64 1192.27 2367.15L1184.7 2369.11C1183.57 2369.4 1182.9 2370.57 1183.18 2371.72C1183.47 2372.88 1184.6 2373.58 1185.72 2373.29L1193.69 2371.22C1193.33 2370.36 1192.99 2369.49 1192.69 2368.6Z" fill="#201E26"/>
<path d="M1284.66 1697.42C1284.66 1697.42 1269.12 1605.2 1246.87 1573.37C1218.81 1533.2 1164.9 1524.72 1162.17 1524.38C1155.12 1533.79 1144.72 1537.5 1130.96 1535.94C1117.1 1534.38 1112.77 1520.3 1112.77 1520.3C1102.39 1520.74 1031.93 1536.77 1010.83 1584.94C991.772 1628.45 985.762 1682.95 984.054 1694.03C982.269 1705.71 972.712 1774.8 1021.07 1769.13C1030.5 1768.03 1047.22 1761.16 1047.22 1761.16L1047.31 1817.42C1047.33 1825.25 1052.3 1832.22 1059.69 1834.74C1074.2 1839.69 1102.25 1846.36 1148.05 1846.36C1188.27 1846.36 1217.41 1839.45 1233.17 1834.48C1241.28 1831.92 1246.69 1824.28 1246.48 1815.79C1246.17 1803.88 1245.5 1786.8 1244.71 1768.58C1263.74 1764.14 1287.17 1753.49 1284.66 1697.42Z" fill="#F03556"/>
<path d="M1135.41 1730.56C1135.41 1730.56 1193 1676.38 1171.8 1670.53C1144.55 1663.02 1114.97 1685.2 1113.83 1685.88C1112.69 1686.56 1111.34 1684.75 1105.86 1685.43C1100.37 1686.11 1072.65 1692.48 1073.44 1685.2C1085.24 1577.24 1058.09 1565.63 1058.08 1565.63C1063.64 1571.1 1067.9 1578.5 1069.31 1586.3C1073 1606.72 1067.25 1668.96 1055.83 1695.91C1055.83 1695.91 1110.37 1691.16 1114.79 1690.11C1119.22 1689.06 1126.77 1702.89 1128.12 1706.53C1129.48 1710.16 1132.15 1720.02 1131.47 1722.57C1130.79 1725.13 1086.32 1746.38 1047.22 1761.15L1047.32 1817.42C1047.32 1825.25 1052.29 1832.22 1059.69 1834.74C1068.48 1837.74 1082.23 1841.36 1101.88 1843.76C1099.88 1843.21 1097.72 1842.61 1095.41 1841.96C1062.01 1832.68 1060.51 1796.24 1069.31 1776.16C1078.1 1756.09 1135.41 1730.56 1135.41 1730.56Z" fill="#E1334E"/>
<path d="M1112.77 1520.31C1112.77 1520.31 1117.09 1534.38 1130.96 1535.95C1144.45 1537.48 1154.71 1533.92 1161.75 1524.9C1161.46 1519.09 1161.21 1511.44 1161.42 1506.73C1150.17 1507.48 1134.2 1500.99 1125.89 1492.56C1122.32 1488.94 1119.77 1485.16 1117.93 1481.59C1117.03 1493.2 1115.09 1510.33 1112.77 1520.31Z" fill="#F9AB77"/>
<path d="M1125.9 1492.56C1122.43 1489.04 1119.93 1485.38 1118.11 1481.9C1118.1 1482 1118.09 1482.1 1118.09 1482.2C1118.09 1482.2 1123.72 1507.53 1148.6 1517.13C1154.19 1519.28 1158.39 1520.19 1161.55 1520.3C1161.37 1515.47 1161.27 1510.26 1161.42 1506.73C1150.18 1507.47 1134.21 1500.99 1125.9 1492.56Z" fill="#E28561"/>
<path d="M1183.11 1432.68C1156.08 1435.48 1152.24 1429.17 1146.35 1429.21C1138.34 1429.26 1134.73 1436.72 1132.68 1443.49C1130.81 1449.68 1124.42 1454.06 1124.42 1454.06C1124.42 1454.06 1122.78 1453.31 1120.83 1451.06C1119.96 1450.07 1119.25 1448.25 1118.25 1446.86C1115.32 1442.74 1109.42 1442.93 1107.76 1448.95C1106.08 1454.96 1109.58 1463.4 1113.28 1464.59C1113.28 1464.59 1113.66 1468.99 1114.3 1471.84C1114.37 1472.13 1114.45 1472.42 1114.52 1472.73L1114.55 1472.82C1116.02 1478.3 1119.15 1485.71 1125.89 1492.56C1136.7 1503.52 1160.44 1511.2 1169.93 1503.97C1184.29 1493.01 1186.49 1469.09 1186.11 1450.69C1185.94 1442.51 1184.93 1436.73 1183.11 1432.68Z" fill="#F9AB77"/>
<path d="M1239.84 1768.25C1235.54 1767.94 1229.57 1767.17 1223.5 1764.22C1220.47 1762.69 1217.64 1761.01 1215.38 1759.01C1213.12 1757 1211.47 1754.61 1210.25 1752.43C1207.88 1748.01 1206.95 1744.77 1206.66 1744.92C1206.5 1744.99 1206.97 1748.4 1209.18 1753.29C1210.31 1755.7 1212.01 1758.41 1214.4 1760.68C1216.8 1762.95 1219.71 1764.74 1222.84 1766.31C1229.22 1769.41 1235.44 1769.94 1239.81 1769.84C1241.87 1769.78 1243.53 1769.62 1244.74 1769.41C1244.72 1769.14 1244.71 1768.86 1244.7 1768.59C1244.83 1768.56 1244.94 1768.53 1245.06 1768.5C1243.84 1768.45 1242.06 1768.4 1239.84 1768.25Z" fill="#D02A3E"/>
<path d="M1266.49 1683.93C1266.69 1684.05 1264.79 1686.3 1261.65 1689.75C1258.49 1693.21 1254.05 1697.91 1249.06 1703.02C1244.07 1708.14 1239.49 1712.7 1236.1 1715.94C1232.72 1719.18 1230.54 1721.1 1230.36 1720.92C1230.19 1720.75 1232.04 1718.52 1235.2 1715.06C1238.34 1711.58 1242.78 1706.88 1247.77 1701.76C1257.74 1691.55 1266.15 1683.52 1266.49 1683.93Z" fill="#D02A3E"/>
<path d="M1220.43 1677.32C1219.57 1677.32 1218.87 1655.58 1218.87 1643.21C1218.87 1630.82 1219.57 1620.79 1220.43 1620.79C1221.29 1620.79 1221.99 1630.82 1221.99 1643.21C1221.99 1655.58 1221.29 1677.32 1220.43 1677.32Z" fill="#E1334E"/>
<path d="M1188 1391.38C1181.37 1391.34 1173.96 1390.76 1168.07 1389.59C1155.27 1387.05 1125.04 1381.17 1105.37 1395.65C1088.45 1408.1 1083.23 1424.1 1088.68 1448.41C1093.74 1470.96 1117.27 1489.17 1117.27 1489.17C1118.95 1487.2 1119.35 1486.26 1119.51 1484.39C1116.95 1480.19 1115.44 1476.15 1114.55 1472.83L1114.52 1472.73C1114.45 1472.43 1114.37 1472.13 1114.3 1471.84C1113.66 1468.99 1113.27 1464.59 1113.27 1464.59C1109.57 1463.41 1106.08 1454.96 1107.75 1448.95C1109.42 1442.94 1115.31 1442.74 1118.25 1446.86C1119.24 1448.26 1119.95 1450.06 1120.82 1451.06C1122.77 1453.32 1124.42 1454.06 1124.42 1454.06C1124.42 1454.06 1130.81 1449.68 1132.68 1443.5C1134.73 1436.73 1138.34 1429.26 1146.35 1429.21C1152.24 1429.17 1156.08 1435.48 1183.11 1432.68C1196.8 1431.26 1202.91 1420.26 1203.92 1409.54C1205.28 1395.23 1197.98 1391.45 1188 1391.38Z" fill="#201E26"/>
<path d="M1207.63 1700.15C1206.86 1696.47 1200.65 1694.23 1200.65 1694.23C1203.6 1689.14 1190.35 1687.3 1190.35 1687.3C1190.35 1687.3 1191.07 1681.62 1173.52 1678.17C1160.29 1675.56 1149.88 1674.67 1144.21 1677.5C1141.72 1678.73 1137.06 1681.56 1132.61 1684.34C1126.15 1688.39 1118.98 1691.26 1111.45 1692.77C1119.35 1698.06 1124.59 1711.37 1125.41 1720.19C1132.23 1715.37 1141.98 1710.2 1152 1710.76C1167.51 1711.62 1181.53 1705.49 1175.13 1704.26C1168.72 1703.03 1164.21 1700.86 1165.28 1700.52C1166.34 1700.18 1179.81 1696.37 1193.52 1700.38C1207.24 1704.4 1208.02 1702.01 1207.63 1700.15Z" fill="#F9AB77"/>
<path d="M1131.47 1722.57C1132.15 1720.02 1129.48 1710.16 1128.12 1706.53C1126.76 1702.9 1119.22 1689.06 1114.8 1690.11C1110.37 1691.16 1055.82 1695.91 1055.82 1695.91C1067.25 1668.97 1072.99 1606.72 1069.3 1586.31C1065.61 1565.89 1042.43 1548.2 1027.51 1560.8C1020.67 1567.76 1014.85 1575.77 1010.83 1584.95C991.769 1628.45 985.754 1682.95 984.048 1694.04C982.267 1705.71 972.711 1774.8 1021.06 1769.14C1030.49 1768.03 1047.21 1761.16 1047.21 1761.16C1086.32 1746.38 1130.79 1725.13 1131.47 1722.57Z" fill="#F03556"/>
<path d="M1167.24 1673.4L1108.45 1744.59C1106.96 1746.39 1107.04 1749.02 1108.63 1750.74L1108.96 1751.1C1110.02 1752.25 1111.57 1752.79 1113.11 1752.55L1210.06 1737.78C1211.35 1737.58 1212.52 1736.84 1213.24 1735.74L1260.18 1665.14C1261.46 1663.21 1261.13 1660.63 1259.41 1659.08C1258.35 1658.13 1256.93 1657.7 1255.53 1657.93L1170.11 1671.77C1168.99 1671.95 1167.97 1672.53 1167.24 1673.4Z" fill="#1D2A30"/>
<path d="M1232.81 1698.83C1229.34 1698.83 1226.22 1700.94 1224.98 1704.18C1223.67 1707.58 1221.76 1711.55 1219.64 1712.7C1215.72 1714.84 1208.96 1716.54 1205.4 1714.81C1201.85 1713.06 1188.38 1702.43 1185.15 1702.43C1182.28 1702.43 1180.49 1706.3 1182.99 1709.15C1185.47 1712 1198.64 1720.53 1196.16 1723.38C1193.66 1726.23 1166.18 1714.41 1161.63 1714.81C1157.24 1715.18 1154.87 1718.53 1157.36 1720.25C1159.85 1721.95 1178.71 1729.08 1179.78 1731.56C1179.78 1731.56 1151.97 1725.05 1150.24 1725.87C1148.37 1726.77 1147.4 1730.5 1150.24 1731.56C1153.09 1732.63 1177.64 1739.04 1179.78 1740.1C1181.92 1741.17 1189.28 1743.31 1190.75 1743.31C1191.54 1743.31 1197.11 1745.17 1202.23 1746.94C1207.99 1748.94 1214.28 1748.77 1219.93 1746.47L1222.81 1745.29C1227.29 1743.47 1230.11 1738.98 1229.83 1734.15L1229.25 1724.45L1232.35 1716.44L1232.81 1698.83Z" fill="#F9AB77"/>
<path d="M1037.88 1698.2C1043.13 1697.48 1049.51 1696.54 1055.83 1695.91L1056.22 1694.96C1049.67 1695.66 1043.59 1696.12 1037.71 1697.05C1028.88 1698.46 1021.78 1699.67 1016.56 1700.28C1014.2 1700.58 1012.3 1700.83 1010.81 1701.02C1009.5 1701.21 1008.82 1701.34 1008.82 1701.39C1008.83 1701.45 1009.52 1701.44 1010.84 1701.36C1012.33 1701.24 1014.25 1701.1 1016.62 1700.92C1021.85 1700.45 1028.78 1699.44 1037.88 1698.2Z" fill="#D02A3E"/>
<path d="M1240.83 1673C1240.46 1673 1240.11 1672.89 1239.85 1672.66C1239.07 1671.97 1239.27 1670.45 1240.3 1669.28C1241 1668.49 1241.88 1668.06 1242.63 1668.06C1243.01 1668.06 1243.34 1668.17 1243.61 1668.4C1244.39 1669.09 1244.19 1670.61 1243.15 1671.78C1242.46 1672.57 1241.57 1673 1240.83 1673Z" fill="#A0A9AB"/>
<path d="M450.903 2188.59C428.731 2200.4 419.473 2227.48 416.217 2240.38C412.001 2225.48 407.515 2211.07 402.984 2197.43C429.834 2204.48 442.595 2136.23 442.595 2136.23C412.841 2150.25 403.284 2177.55 400.416 2189.81C393.703 2170.11 386.99 2152.25 381.008 2137.16C430.583 2110.31 405.241 2055.73 405.241 2055.73C381.08 2077.79 378.151 2113.79 378.16 2130.04C368.67 2106.56 361.526 2091.13 360.069 2088.02C360.478 2076.59 357.758 2043.36 314.823 2027.07C314.823 2027.07 312.306 2083.27 356.79 2091.52C359.084 2096.46 365.921 2111.5 374.689 2133.26C359.035 2109.78 306.712 2122.58 306.712 2122.58C335.431 2159.22 373.979 2142.62 377.73 2140.89C383.249 2154.87 389.358 2171.15 395.495 2189.01C374.556 2164.99 324.269 2183.66 324.269 2183.66C359.388 2218.36 391.184 2205.49 399.569 2201.1C403.644 2213.43 407.675 2226.39 411.493 2239.76C395.429 2226.73 358.887 2240.26 358.887 2240.26C381.087 2262.39 405.711 2253.4 414.15 2249.26C416.588 2258.17 418.917 2267.22 421.09 2276.38L425.226 2274.95C422.962 2265.4 420.528 2255.97 417.98 2246.7C459.089 2236.05 450.903 2188.59 450.903 2188.59Z" fill="#77CC66"/>
<path d="M482.669 2200.5C458.807 2205.11 442.742 2228.8 436.163 2240.44C436.349 2224.46 436.148 2208.89 435.689 2194.08C458.708 2209.47 489.363 2146.46 489.363 2146.46C457.847 2150.83 441.442 2174.64 435.402 2185.77C434.587 2164.31 433.266 2144.64 431.86 2127.93C485.338 2117.2 476.809 2055.59 476.809 2055.59C448.274 2069.64 435.639 2104.08 431.172 2120.04C428.817 2093.98 426.425 2076.57 425.927 2073.06C429.455 2061.96 436.077 2028.46 400.653 1998.91C400.653 1998.91 382.838 2053.32 421.917 2075.45C422.686 2081.04 424.902 2097.96 427.06 2122.11C418.973 2094.11 366.812 2090.16 366.812 2090.16C383.418 2135.22 423.822 2131.08 427.786 2130.56C429.065 2146.03 430.262 2163.96 431.048 2183.44C418.198 2153.23 366.312 2155.7 366.312 2155.7C389.403 2200.87 422.502 2198.27 431.506 2196.59C431.898 2209.99 432.076 2223.99 431.944 2238.33C420.598 2220.47 382.906 2222.23 382.906 2222.23C397.448 2250.96 422.813 2249.91 431.798 2248.5C431.611 2258.02 431.281 2267.66 430.779 2277.34L435.02 2277.23C435.543 2267.14 435.88 2257.1 436.063 2247.2C477.208 2249.71 482.669 2200.5 482.669 2200.5Z" fill="#92D792"/>
<path d="M489.116 2298.94L477.391 2369.42C476.099 2377.19 469.381 2382.88 461.509 2382.88H393.95C386.078 2382.88 379.36 2377.19 378.069 2369.42L366.343 2298.94H489.116Z" fill="#2A4146"/>
<path d="M367.483 2298.94H487.976C493.919 2298.94 498.738 2294.12 498.738 2288.18V2283.16C498.738 2277.22 493.919 2272.4 487.976 2272.4H367.483C361.539 2272.4 356.72 2277.22 356.72 2283.16V2288.18C356.72 2294.12 361.539 2298.94 367.483 2298.94Z" fill="#191F29"/>
<path d="M489.116 2298.94L488.632 2301.85C487.622 2301.93 407.82 2311.05 407.82 2311.05C407.82 2311.05 410.032 2364.41 416.669 2371.26C421.484 2376.24 429.447 2380.16 438.863 2382.88H393.95C386.078 2382.88 379.36 2377.19 378.069 2369.42L366.343 2298.94H489.116Z" fill="#1D2A30"/>
<path d="M439.031 2227.22C440.389 2211.26 442.066 2197.21 443.677 2185.67C437.683 2186.46 424.342 2186.8 411.14 2177.43C389.011 2161.73 389.012 2133.75 389.012 2133.75C429.703 2136.57 441.834 2159.54 445.44 2173.78C446.928 2164.3 448.373 2156.4 449.563 2150.36C446.381 2144.95 440.941 2132.54 445.345 2116.2C452.797 2088.56 481.563 2076.63 481.563 2076.63C497.555 2125.23 465.766 2146.22 454.968 2151.78C453.37 2159.95 451.305 2171.56 449.285 2185.93C455.09 2172.09 472.66 2145.64 520.815 2153C520.815 2153 514.102 2182.85 486.732 2194.29C468.39 2201.96 452.795 2196.53 448.128 2194.52C446.656 2205.94 445.263 2218.8 444.157 2232.83C451.024 2221.47 468.311 2203.39 506.018 2213.27C506.018 2213.27 497.763 2237.72 473.805 2244.9C459.954 2249.06 448.674 2245.22 443.438 2242.74C442.813 2252.18 442.328 2262.1 442.041 2272.4H436.474C436.771 2261.67 437.282 2251.4 437.931 2241.68C432.196 2242.36 420.247 2242.41 408.422 2234.03C388.023 2219.55 388.023 2193.76 388.023 2193.76C422.398 2196.14 434.663 2214.13 439.031 2227.22Z" fill="#77CC66"/>
<path d="M1907.81 1562.01C1909.8 1531.87 1935.84 1509.04 1965.98 1511.02C1996.12 1513 2018.96 1539.04 2016.98 1569.17C2015 1599.31 1988.96 1622.14 1958.81 1620.16C1928.67 1618.18 1905.84 1592.14 1907.81 1562.01Z" fill="#F5F6F5"/>
<path d="M1908.39 1562.05C1910.28 1533.44 1934.07 1511.49 1962.34 1511.49C1963.52 1511.49 1964.73 1511.53 1965.93 1511.61C1994.55 1513.49 2016.5 1537.28 2016.5 1565.54C2016.5 1566.73 2016.47 1567.93 2016.39 1569.14C2014.51 1597.75 1990.71 1619.7 1962.44 1619.7C1961.26 1619.7 1960.05 1619.66 1958.85 1619.58C1930.23 1617.7 1908.28 1593.91 1908.28 1565.65C1908.28 1564.46 1908.32 1563.26 1908.39 1562.05L1907.23 1561.97C1907.15 1563.2 1907.11 1564.43 1907.11 1565.65C1907.11 1594.52 1929.54 1618.82 1958.76 1620.74C1959.99 1620.82 1961.22 1620.87 1962.44 1620.87C1991.32 1620.86 2015.63 1598.44 2017.55 1569.21C2017.64 1567.98 2017.67 1566.76 2017.67 1565.54C2017.67 1536.66 1995.24 1512.36 1966.01 1510.44C1964.78 1510.36 1963.55 1510.32 1962.34 1510.32C1933.46 1510.32 1909.14 1532.75 1907.23 1561.97L1908.39 1562.05Z" fill="#84908C"/>
<path d="M1937.53 1567.11C1939.06 1567.07 1940.96 1567.02 1943.21 1566.96C1949.02 1566.86 1955.38 1566.82 1961.78 1566.81C1961.78 1565.81 1961.78 1564.78 1961.78 1563.73C1961.78 1555.81 1961.84 1548.64 1961.92 1543.45C1961.98 1541 1962.04 1538.95 1962.09 1537.3C1962.15 1535.85 1962.21 1535.05 1962.28 1535.05C1962.35 1535.05 1962.42 1535.85 1962.48 1537.3C1962.52 1538.95 1962.58 1541 1962.65 1543.45C1962.75 1549.79 1962.79 1556.79 1962.79 1563.73C1962.79 1564.94 1962.78 1566.14 1962.78 1567.28V1567.75L1962.28 1567.75C1954.71 1567.73 1948.01 1567.67 1943.21 1567.59C1940.96 1567.53 1939.06 1567.49 1937.53 1567.45C1936.21 1567.39 1935.47 1567.34 1935.47 1567.28C1935.47 1567.22 1936.21 1567.16 1937.53 1567.11Z" fill="#84908C"/>
<path d="M1962.26 1519.89C1962.52 1519.89 1962.73 1521.95 1962.73 1524.48C1962.73 1527.02 1962.52 1529.08 1962.26 1529.08C1962 1529.08 1961.78 1527.02 1961.78 1524.48C1961.78 1521.95 1962 1519.89 1962.26 1519.89Z" fill="#84908C"/>
<path d="M1987.18 1527.27C1987.36 1527.45 1986.07 1529.04 1984.31 1530.81C1982.54 1532.57 1980.95 1533.86 1980.77 1533.67C1980.58 1533.49 1981.86 1531.9 1983.64 1530.14C1985.4 1528.37 1986.99 1527.08 1987.18 1527.27Z" fill="#84908C"/>
<path d="M2001.75 1543.18C2001.87 1543.42 2000.16 1544.51 1998.04 1545.8C1995.92 1547.09 1994.17 1548.1 1994.02 1547.88C1993.86 1547.68 1995.39 1546.3 1997.56 1544.99C1999.71 1543.68 2001.64 1542.95 2001.75 1543.18Z" fill="#84908C"/>
<path d="M2010.29 1566.8C2010.29 1567.06 2007.49 1567.27 2004.03 1567.27C2000.56 1567.27 1997.76 1567.06 1997.76 1566.8C1997.76 1566.54 2000.56 1566.33 2004.03 1566.33C2007.49 1566.33 2010.29 1566.54 2010.29 1566.8Z" fill="#84908C"/>
<path d="M1923.41 1565.97C1923.41 1566.23 1920.75 1566.44 1917.49 1566.44C1914.22 1566.44 1911.58 1566.23 1911.58 1565.97C1911.58 1565.71 1914.22 1565.49 1917.49 1565.49C1920.75 1565.49 1923.41 1565.71 1923.41 1565.97Z" fill="#84908C"/>
<path d="M1929.55 1583.55C1929.72 1583.75 1927.76 1585.6 1925.16 1587.7C1922.56 1589.79 1920.32 1591.32 1920.17 1591.11C1920.01 1590.9 1921.97 1589.04 1924.57 1586.96C1927.15 1584.88 1929.37 1583.35 1929.55 1583.55Z" fill="#84908C"/>
<path d="M1944.72 1597.15C1944.93 1597.3 1943.5 1599.61 1941.77 1602.48C1940.05 1605.35 1938.69 1607.7 1938.44 1607.58C1938.21 1607.47 1939.22 1604.9 1940.96 1601.99C1942.7 1599.08 1944.51 1596.99 1944.72 1597.15Z" fill="#84908C"/>
<path d="M1962.26 1614.69C1962 1614.69 1961.78 1611.88 1961.78 1608.42C1961.78 1604.96 1962 1602.16 1962.26 1602.16C1962.52 1602.16 1962.73 1604.96 1962.73 1608.42C1962.73 1611.88 1962.52 1614.69 1962.26 1614.69Z" fill="#84908C"/>
<path d="M1989.27 1606.34C1989.14 1606.55 1986.64 1605.18 1984.02 1602.89C1981.39 1600.6 1979.7 1598.33 1979.89 1598.17C1980.09 1597.99 1982.07 1599.94 1984.65 1602.18C1987.22 1604.42 1989.41 1606.11 1989.27 1606.34Z" fill="#84908C"/>
<path d="M2001.94 1592.69C2001.75 1592.88 1999.87 1591.28 1997.7 1589.13C1995.55 1586.98 1993.96 1585.08 1994.14 1584.9C1994.32 1584.71 1996.22 1586.31 1998.38 1588.46C2000.53 1590.61 2002.12 1592.51 2001.94 1592.69Z" fill="#84908C"/>
<path d="M1928.98 1549.12C1928.79 1549.31 1927.11 1547.93 1925.23 1546.05C1923.35 1544.16 1921.97 1542.49 1922.15 1542.3C1922.33 1542.12 1924.01 1543.49 1925.91 1545.38C1927.79 1547.26 1929.16 1548.94 1928.98 1549.12Z" fill="#84908C"/>
<path d="M1944.63 1532.65C1944.44 1532.83 1942.79 1531.49 1940.95 1529.65C1939.09 1527.81 1937.74 1526.17 1937.92 1525.98C1938.11 1525.8 1939.76 1527.14 1941.6 1528.98C1943.46 1530.82 1944.81 1532.46 1944.63 1532.65Z" fill="#84908C"/>
<path d="M1880.78 1789.97H1941.18C1942.27 1789.97 1943.33 1790.1 1944.34 1790.34C1945.61 1790.1 1946.94 1789.97 1948.3 1789.97C1959.99 1789.97 1969.47 1799.47 1969.47 1811.18V2042.34C1969.47 2054.06 1959.99 2063.56 1948.3 2063.56C1946.98 2063.56 1942.31 2063.6 1941.18 2063.6H1832.31C1824.89 2063.6 1818.89 2057.6 1818.89 2050.19V1851.84C1818.89 1817.67 1846.6 1789.97 1880.78 1789.97Z" fill="#8294D3"/>
<path d="M1929.47 2062.33C1929.8 2062.81 1930.09 2063.23 1930.36 2063.6L1832.31 2063.6C1824.89 2063.6 1818.9 2057.6 1818.9 2050.2V1851.84C1818.9 1817.67 1846.6 1789.97 1880.77 1789.97L1941.18 1789.97C1941.32 1789.97 1941.45 1789.98 1941.58 1789.98C1938.11 1792.39 1937.22 1800.97 1937.22 1800.97C1937.2 1800.97 1937.16 1801.2 1937.11 1801.66C1937.05 1802.2 1936.99 1802.85 1936.91 1803.66C1936.74 1805.55 1936.53 1808.12 1936.27 1811.37C1935.78 1818.21 1935.09 1827.87 1934.24 1839.75C1932.66 1863.85 1930.49 1896.9 1928.09 1933.42C1925.83 1970.03 1923.68 2003.13 1922.5 2027.16C1922.05 2039.2 1923.52 2049.06 1926.03 2055.37C1927.19 2058.55 1928.53 2060.82 1929.47 2062.33Z" fill="#91A4DB"/>
<path d="M1724.44 2383.33H1727.54C1727.54 2332.02 1769.29 2290.27 1820.61 2290.27C1871.93 2290.27 1913.69 2332.02 1913.69 2383.33H1916.78C1916.78 2330.32 1873.64 2287.18 1820.61 2287.18C1767.59 2287.18 1724.44 2330.32 1724.44 2383.33Z" fill="#4D6AB9"/>
<path d="M1900.82 2381.59C1900.82 2389.55 1907.27 2396 1915.24 2396C1923.2 2396 1929.66 2389.55 1929.66 2381.59C1929.66 2373.62 1923.2 2367.17 1915.24 2367.17C1907.27 2367.17 1900.82 2373.62 1900.82 2381.59Z" fill="#4D6AB9"/>
<path d="M1710.95 2382.25C1710.95 2390.21 1717.4 2396.67 1725.37 2396.67C1733.33 2396.67 1739.79 2390.21 1739.79 2382.25C1739.79 2374.29 1733.33 2367.83 1725.37 2367.83C1717.4 2367.83 1710.95 2374.29 1710.95 2382.25Z" fill="#8294D3"/>
<path d="M1809.19 2359.6H1831.06V2097.57H1809.19V2359.6Z" fill="#8294D3"/>
<path d="M1952.83 2063.61C1967.97 2063.61 1980.27 2075.9 1980.27 2091.04C1980.27 2094.64 1977.35 2097.57 1973.75 2097.57H1673.94C1670.33 2097.57 1667.41 2094.64 1667.41 2091.04C1667.41 2075.9 1679.69 2063.61 1694.86 2063.61H1952.83Z" fill="#8294D3"/>
<path d="M1804.28 2102.82H1835.96C1838.87 2102.82 1841.22 2100.47 1841.22 2097.57H1799.02C1799.02 2100.47 1801.37 2102.82 1804.28 2102.82Z" fill="#4D6AB9"/>
<path d="M1730.61 2359.6H1910.62C1910.91 2360.7 1911.18 2361.83 1911.44 2362.95H1729.8C1730.05 2361.83 1730.33 2360.7 1730.61 2359.6Z" fill="#4D6AB9"/>
<path d="M1930.37 1780.93C1927.51 1756.57 1894.01 1713.18 1888.5 1708.12C1889.26 1707.65 1889.4 1706.6 1888.8 1705.95L1881.25 1697.76C1878.36 1694.62 1873.7 1693.83 1869.95 1695.85L1812.89 1726.51L1813.25 1733.63L1792.04 1778.26L1746.24 1861.77L1633.47 1880.6C1631.13 1880.98 1629.43 1882.98 1629.4 1885.34L1629.2 1907.83C1629.17 1911.38 1631.89 1914.36 1635.43 1914.66L1652.46 1916.09C1653.11 1917.91 1654.72 1919.31 1656.75 1919.57L1736.07 1929.65C1736.07 1929.65 1746.97 1930.86 1761.66 1931.92L1757.22 1946.95C1756.07 1950.79 1757.03 1954.75 1760.51 1956.44C1809.36 1980.14 1881.76 1984.57 1881.76 1984.57C1885.42 1985.38 1888.43 1982.93 1889.99 1979.53C1902.29 1952.79 1937.13 1838.38 1930.37 1780.93Z" fill="white"/>
<path d="M1519.9 2325.14C1517.13 2328.56 1510.43 2335.46 1504.14 2340.92C1494.86 2348.97 1484.9 2353.5 1477.37 2356.86C1469.83 2360.23 1449.74 2367.27 1457.21 2374.22C1463.5 2380.08 1483.28 2379.24 1498.62 2378.07C1515.64 2376.76 1528.61 2370.39 1531.2 2369.46C1533.77 2368.54 1533.21 2373.57 1533.64 2374.92C1534.08 2376.26 1556.77 2378.18 1559.7 2373.71C1561.77 2370.57 1563.55 2349.97 1563.96 2345.17C1564.3 2341.38 1564.48 2331.11 1563.89 2326.1C1552.71 2326.97 1531.8 2328.07 1519.9 2325.14Z" fill="#201E26"/>
<path d="M1721.94 2299.04C1721.48 2303.43 1719.62 2312.85 1717.33 2320.86C1713.95 2332.67 1708.07 2341.89 1703.59 2348.82C1699.11 2355.75 1686.12 2372.61 1696.16 2374.37C1704.62 2375.85 1720.75 2364.36 1732.97 2355C1746.52 2344.63 1753.91 2332.22 1755.57 2330.03C1757.24 2327.86 1759.5 2332.37 1760.6 2333.26C1761.7 2334.16 1781.77 2323.39 1781.79 2318.04C1781.81 2314.29 1772.06 2296.06 1769.79 2291.8C1768 2288.44 1762.55 2279.74 1759.33 2275.85C1750.43 2282.68 1733.51 2295.01 1721.94 2299.04Z" fill="#201E26"/>
<path d="M1786.05 1626.5C1786.05 1626.5 1787.82 1662.57 1795.26 1680.72C1802.71 1698.87 1807.85 1702.08 1822.41 1698C1836.96 1693.92 1855.29 1681.07 1856.46 1653.61C1856.46 1653.61 1860.6 1652.38 1860.78 1643.82C1860.96 1635.26 1860.4 1631.74 1855.86 1631.27C1851.31 1630.8 1848.83 1638.73 1848.57 1639.53C1848.31 1640.32 1847.83 1646.13 1847.83 1646.13L1846.06 1646.96C1846.06 1646.96 1842.27 1641.72 1836.36 1630.46C1830.45 1619.2 1825.08 1614.86 1816.52 1617.51C1807.97 1620.15 1795.61 1624.86 1786.05 1626.5Z" fill="#F8A46B"/>
<path d="M1849.62 1575.18C1835.04 1572.16 1800.23 1572.05 1784.06 1580.68C1767.88 1589.31 1756.16 1588.54 1756.16 1588.54C1756.16 1588.54 1758.62 1611.47 1768.23 1620.26C1777.84 1629.06 1786.05 1626.5 1786.05 1626.5C1795.6 1624.87 1807.96 1620.15 1816.52 1617.51C1825.07 1614.86 1830.45 1619.2 1836.36 1630.47C1842.27 1641.73 1846.06 1646.97 1846.06 1646.97L1847.82 1646.13C1847.82 1646.13 1848.3 1640.32 1848.57 1639.53C1848.83 1638.73 1851.31 1630.8 1855.85 1631.27C1860.4 1631.74 1860.95 1635.26 1860.77 1643.82C1860.6 1652.38 1856.45 1653.62 1856.45 1653.62C1856.42 1654.61 1856.35 1655.57 1856.26 1656.53V1656.53C1858.51 1662.92 1862.73 1671.58 1862.73 1671.58C1862.73 1671.58 1877.82 1640.12 1876.21 1616.03C1874.59 1591.94 1864.23 1578.2 1849.62 1575.18Z" fill="#233262"/>
<path d="M1823.6 1709.11C1823.62 1711.91 1823.49 1716.45 1823.13 1721.01L1869.95 1695.85C1870.21 1695.72 1870.47 1695.59 1870.73 1695.48C1868.08 1688.73 1865.16 1680.46 1862.74 1671.58V1671.58C1862.74 1671.58 1858.52 1662.91 1856.26 1656.53V1656.52C1853.98 1681.84 1836.63 1693.93 1822.64 1697.93C1823.06 1700.75 1823.57 1705.07 1823.6 1709.11Z" fill="#F8A46B"/>
<path d="M1856.26 1656.53L1856.25 1656.53C1856.26 1656.41 1856.28 1656.28 1856.28 1656.16C1854.13 1681.72 1836.69 1693.91 1822.65 1697.93C1823.05 1700.76 1823.57 1705.07 1823.6 1709.11C1823.61 1711.03 1823.55 1713.76 1823.4 1716.76C1827.12 1714.52 1831.66 1711.5 1837.12 1707.41C1855.08 1693.97 1859.44 1670.44 1860.12 1665.96C1858.83 1663.08 1857.33 1659.55 1856.26 1656.53Z" fill="#ED8A4B"/>
<path d="M1630.57 1884.05C1630.49 1882.97 1616.68 1871.71 1615.03 1871.28C1613.37 1870.84 1589.86 1865.84 1588.57 1866.73C1587.37 1867.56 1583.24 1871.14 1589.39 1873.89L1594.07 1875.12L1576.11 1878.59C1573.88 1879.02 1571.84 1880.15 1570.29 1881.81C1566.57 1885.84 1559.88 1893.4 1560.22 1895.53C1560.68 1898.49 1563.24 1900.21 1564.77 1898.75C1566.3 1897.29 1561.08 1908.48 1561.08 1908.48C1561.08 1908.48 1561.39 1913.06 1563.77 1912.09C1566.14 1911.12 1569.63 1906.55 1569.63 1906.55C1569.63 1906.55 1567.18 1912 1567.65 1913.46C1568.22 1915.25 1574.21 1914.37 1574.66 1912.99C1575.11 1911.6 1577.15 1908.86 1577.15 1908.86L1577.29 1911.02C1577.39 1912.77 1577.39 1914.34 1579.07 1914.86C1579.07 1914.86 1581.97 1915.42 1583.4 1912.72L1586.7 1908.94L1604.76 1910.34L1633.31 1912.08L1630.57 1884.05Z" fill="#ED8A4B"/>
<path d="M1652.19 1913.94L1654.1 1890.73C1654.4 1887.1 1657.36 1884.27 1660.98 1884.13L1764.23 1880.03C1764.91 1880.01 1765.59 1879.98 1766.26 1879.93C1766.5 1879.91 1766.73 1879.89 1766.97 1879.87C1767.03 1879.87 1767.1 1879.85 1767.18 1879.85C1767.52 1879.82 1767.87 1879.78 1768.2 1879.75C1768.49 1879.71 1768.78 1879.67 1769.07 1879.64C1769.19 1879.62 1769.32 1879.6 1769.45 1879.58C1769.66 1879.55 1769.85 1879.52 1770.06 1879.49C1770.38 1879.43 1770.7 1879.38 1771.01 1879.32C1771.2 1879.28 1771.38 1879.25 1771.57 1879.21C1771.64 1879.19 1771.7 1879.18 1771.77 1879.16C1772.13 1879.09 1772.49 1879.01 1772.85 1878.92C1773.02 1878.88 1773.19 1878.84 1773.35 1878.79C1773.78 1878.68 1774.2 1878.57 1774.62 1878.44C1774.69 1878.42 1774.77 1878.39 1774.86 1878.36C1775.86 1878.06 1776.85 1877.7 1777.8 1877.3L1804.89 1785.65L1814.08 1740.86L1813.25 1733.63L1792.05 1778.26L1746.24 1861.77L1633.47 1880.59C1631.14 1880.98 1629.43 1882.98 1629.42 1885.34L1629.21 1907.83C1629.17 1911.38 1631.88 1914.36 1635.44 1914.66L1652.47 1916.09C1652.23 1915.42 1652.12 1914.69 1652.19 1913.94Z" fill="#DFE3E8"/>
<path d="M1815.08 1737.8L1818.96 1756.4L1812.47 1791.17L1754.42 1956.42L1738.99 1962.79L1739.3 1944.57C1739.3 1944.57 1780.89 1849.51 1788.96 1821.28C1797.02 1793.07 1815.08 1737.8 1815.08 1737.8Z" fill="#F03556"/>
<path d="M1812.89 1726.51C1812.74 1726.56 1813.54 1729.41 1814.46 1734.49C1815.5 1739.55 1816.28 1746.91 1818.71 1755.52L1818.96 1756.4L1819.73 1755.88C1826.39 1751.44 1834.06 1746.3 1842.24 1740.84C1855.22 1732.11 1866.91 1724.13 1875.33 1718.29C1879.34 1715.47 1882.46 1712.8 1885.03 1710.99C1887.35 1709.31 1888.56 1708.2 1888.5 1708.11C1888.45 1708.02 1887.21 1709.04 1884.77 1710.56C1882.12 1712.26 1878.84 1714.73 1874.71 1717.38C1866.13 1722.99 1854.34 1730.82 1841.37 1739.55C1833.24 1745.07 1825.59 1750.26 1818.97 1754.75L1820 1755.11C1817.51 1746.74 1816.51 1739.36 1815.26 1734.33C1814.67 1731.8 1814.12 1729.83 1813.69 1728.5C1813.24 1727.18 1812.96 1726.49 1812.89 1726.51Z" fill="#CCCCC9"/>
<path d="M1591.31 1887.16L1599.93 1884.18C1608.97 1881.04 1618.84 1881.35 1627.68 1885.05L1638.5 1889.59L1651.99 1888.68L1654.2 1889.42L1652.08 1915.28L1648.7 1915.99C1648.7 1915.99 1645.39 1916.96 1637.95 1919.08C1630.5 1921.21 1620.23 1917.23 1620.23 1917.23L1603.13 1911.72L1594.37 1909.86C1592.94 1909.55 1591.44 1909.84 1590.23 1910.66L1584.36 1914.61C1584.36 1914.61 1584.08 1917.92 1583.84 1918.98C1583.32 1921.17 1581.03 1921.6 1579.42 1921.71C1578.77 1921.75 1578.25 1921.18 1577.86 1920.48C1577.22 1919.29 1577.03 1917.91 1577.25 1916.57L1577.75 1910.92L1576.22 1912.13C1575.49 1912.9 1573.15 1915.3 1571.24 1915.28C1568.42 1915.24 1568.73 1912.65 1568.73 1912.65L1567.59 1912.98C1565.7 1913.11 1565.26 1912.72 1565.14 1910.84C1565.03 1909.24 1565.66 1907.69 1566.83 1906.6L1581.68 1892.92C1584.47 1890.36 1587.74 1888.4 1591.31 1887.16Z" fill="#F8A46B"/>
<path d="M1881.77 1984.57C1881.77 1984.57 1809.36 1980.14 1760.52 1956.44C1759.76 1956.08 1759.14 1955.6 1758.62 1955.05C1756.44 1958.98 1754.19 1962.65 1752.94 1963.55C1746 1968.5 1642.76 1976.53 1585.85 1996.42C1547.18 2009.92 1537.7 2062.47 1535.5 2085.07C1532.77 2113.13 1505.83 2323.1 1513.69 2327.67C1526.73 2335.25 1566.34 2338.77 1571.82 2322.51L1617.27 2147.17C1645.9 2194.53 1699.46 2283.34 1717.86 2303.5C1721.7 2307.7 1737.03 2299.14 1747.46 2293.45C1757.89 2287.76 1761.69 2278.84 1759.22 2269.74C1757.39 2262.96 1724.07 2172.74 1715.18 2155.05C1698.87 2122.63 1682.92 2095.94 1671.58 2078.09C1729.53 2073.03 1835 2062.92 1862.5 2054.23C1893.55 2044.43 1889.68 2000.3 1887.03 1983.62C1885.52 1984.59 1883.65 1984.98 1881.77 1984.57Z" fill="#1F345F"/>
<path d="M1747.45 2293.45C1757.89 2287.76 1761.69 2278.85 1759.22 2269.74C1757.38 2262.96 1724.07 2172.74 1715.17 2155.05C1698.87 2122.63 1682.93 2095.94 1671.59 2078.09C1663.01 2078.84 1655.48 2079.48 1649.39 2079.99C1639.56 2080.81 1631.37 2087.85 1629.09 2097.45L1617.28 2147.17C1645.89 2194.53 1699.45 2283.34 1717.86 2303.5C1721.69 2307.7 1737.03 2299.14 1747.45 2293.45Z" fill="#192646"/>
<path d="M1866.64 1762.16C1864.59 1762.91 1813.56 1833.07 1792.13 1865.12C1785.45 1875.09 1776.22 1879.72 1764.22 1880.03L1660.98 1884.13C1657.35 1884.27 1654.39 1887.1 1654.09 1890.73L1652.18 1913.94C1652.12 1914.69 1652.23 1915.42 1652.46 1916.09C1652.69 1916.77 1653.08 1917.38 1653.54 1917.9L1653.58 1917.94C1653.73 1918.11 1653.9 1918.26 1654.08 1918.41L1654.1 1918.43C1654.26 1918.56 1654.43 1918.68 1654.61 1918.79L1654.72 1918.86C1654.9 1918.97 1655.1 1919.08 1655.3 1919.16L1655.35 1919.19C1655.53 1919.26 1655.73 1919.33 1655.92 1919.39C1655.97 1919.4 1656.03 1919.42 1656.08 1919.43C1656.3 1919.49 1656.52 1919.54 1656.75 1919.57L1736.07 1929.65C1736.07 1929.65 1746.28 1930.79 1760.27 1931.82L1760.31 1931.82C1760.75 1931.85 1761.19 1931.89 1761.63 1931.92C1777.89 1933.08 1798.81 1934.05 1814.76 1932.95C1866.91 1929.35 1913.67 1839.18 1922.98 1819C1929.16 1805.6 1924.43 1740.8 1866.64 1762.16Z" fill="white"/>
<path d="M1858.12 1763.53C1851.68 1767.82 1815.04 1817.35 1791.04 1852.17L1783.26 1874.3C1786.6 1872 1789.56 1868.96 1792.13 1865.12C1813.55 1833.07 1864.58 1762.91 1866.64 1762.15C1875.16 1759.01 1882.51 1757.74 1888.86 1757.89C1880.77 1755.61 1869.57 1755.91 1858.12 1763.53Z" fill="#E9E8E7"/>
<path d="M1814.76 1932.95C1798.82 1934.05 1777.91 1933.08 1761.66 1931.92L1757.21 1946.95C1756.07 1950.79 1757.04 1954.75 1760.51 1956.44C1786.4 1969 1818.9 1976.15 1843.74 1980.09C1841.56 1968.19 1842.38 1954.65 1852.88 1945.29C1869.13 1930.81 1891.27 1885.69 1905.65 1851.34C1885.46 1885.05 1851.44 1930.42 1814.76 1932.95Z" fill="#E9E8E7"/>
<path d="M1694.84 2063.61C1679.7 2063.61 1667.41 2075.9 1667.41 2091.04C1667.41 2094.64 1670.32 2097.57 1673.93 2097.57H1933.18V2063.61H1694.84Z" fill="#8294D3"/>
<path d="M640.188 1780.91H579.888C578.804 1780.91 577.752 1781.04 576.744 1781.29C575.463 1781.04 574.144 1780.91 572.793 1780.91C561.119 1780.91 551.656 1790.39 551.656 1802.09V2032.84C551.656 2044.54 563.101 2054.08 574.775 2054.08C576.09 2054.08 578.767 2054.06 579.888 2054.06H688.575C695.971 2054.06 701.967 2048.07 701.967 2040.68V1842.67C701.967 1808.56 674.309 1780.91 640.188 1780.91Z" fill="#8294D3"/>
<path d="M591.586 2052.79C591.246 2053.28 590.951 2053.7 590.694 2054.06H688.575C695.971 2054.06 701.967 2048.07 701.967 2040.68V1842.67C701.967 1808.56 674.309 1780.91 640.188 1780.91H579.888C579.755 1780.91 579.623 1780.92 579.49 1780.92C582.955 1783.32 583.836 1791.89 583.836 1791.89C583.862 1791.89 583.903 1792.12 583.957 1792.57C584.012 1793.11 584.079 1793.77 584.16 1794.57C584.315 1796.46 584.526 1799.03 584.791 1802.27C585.28 1809.1 585.973 1818.74 586.824 1830.6C588.401 1854.65 590.564 1887.65 592.954 1924.11C595.215 1960.65 597.366 1993.69 598.534 2017.68C598.982 2029.7 597.52 2039.55 595.018 2045.84C593.856 2049.02 592.517 2051.29 591.586 2052.79Z" fill="#91A4DB"/>
<path d="M796.248 2373.24H793.16C793.16 2322.01 751.48 2280.34 700.25 2280.34C649.015 2280.34 607.336 2322.01 607.336 2373.24H604.248C604.248 2320.31 647.316 2277.25 700.25 2277.25C753.185 2277.25 796.248 2320.31 796.248 2373.24Z" fill="#4D6AB9"/>
<path d="M620.183 2371.49C620.183 2379.43 613.742 2385.88 605.792 2385.88C597.842 2385.88 591.398 2379.43 591.398 2371.49C591.398 2363.54 597.842 2357.1 605.792 2357.1C613.742 2357.1 620.183 2363.54 620.183 2371.49Z" fill="#4D6AB9"/>
<path d="M809.715 2372.15C809.715 2380.1 803.271 2386.54 795.326 2386.54C787.375 2386.54 780.93 2380.1 780.93 2372.15C780.93 2364.2 787.375 2357.76 795.326 2357.76C803.271 2357.76 809.715 2364.2 809.715 2372.15Z" fill="#8294D3"/>
<path d="M711.651 2349.53H689.819V2087.97H711.651V2349.53Z" fill="#8294D3"/>
<path d="M568.265 2054.08C553.138 2054.08 540.875 2066.33 540.875 2081.46C540.875 2085.05 543.79 2087.97 547.385 2087.97H846.672C850.268 2087.97 853.181 2085.05 853.181 2081.46C853.181 2066.33 840.922 2054.08 825.792 2054.08H568.265Z" fill="#8294D3"/>
<path d="M716.636 2093.21H684.839C681.985 2093.21 679.673 2090.9 679.673 2088.04V2087.97H721.802V2088.04C721.802 2090.9 719.485 2093.21 716.636 2093.21Z" fill="#4D6AB9"/>
<path d="M790.095 2349.53H610.405C610.112 2350.64 609.84 2351.76 609.588 2352.88H790.913C790.656 2351.76 790.387 2350.64 790.095 2349.53Z" fill="#4D6AB9"/>
<path d="M924.931 1986.23C915.389 1972.72 904.589 1962.9 895.32 1959.25C878.803 1952.75 837.877 1948.41 799.853 1948.67C791.502 1948.73 783.231 1943.01 778.55 1936.13C775.5 1936.44 743.923 1939.44 691.168 1939.44C671.229 1939.44 653.795 1940.04 638.802 1940.47C636.537 1945.09 633.986 1950.92 632.83 1954.72C629.094 1964.23 614.477 2029.2 671.744 2053.88C740.749 2083.61 845.485 2052.27 845.485 2052.27C845.485 2052.27 827.914 2121.98 823.58 2163.47C819.247 2204.95 810.213 2267.19 815.632 2269.73C821.051 2272.27 840.19 2282.43 842.72 2277.35C845.243 2272.27 882.443 2181.25 890.751 2156.69C899.059 2132.14 900.857 2121.98 900.857 2121.98C900.857 2121.98 933.716 2168.13 970.556 2202.42C1007.39 2236.71 1012.44 2243.91 1018.22 2244.33C1024 2244.75 1043.5 2243.06 1043.5 2236.71C1043.5 2230.35 952.862 2025.74 924.931 1986.23Z" fill="#201E27"/>
<path d="M858.481 2046.91C852.708 2046.06 845.481 2052.27 845.481 2052.27C845.481 2052.27 827.911 2121.98 823.573 2163.47C819.242 2204.96 810.217 2267.19 815.628 2269.73C821.046 2272.27 840.187 2282.43 842.714 2277.35C845.242 2272.27 882.439 2181.25 890.745 2156.7C899.052 2132.14 900.856 2121.98 900.856 2121.98C863.239 2074.93 864.261 2047.75 858.481 2046.91Z" fill="#1B191B"/>
<path d="M900.856 2121.98C900.856 2121.98 901.498 2122.89 902.671 2124.48C902.093 2123.62 901.498 2122.78 900.856 2121.98Z" fill="#1B181A"/>
<path d="M790.737 2302.18C790.737 2302.18 776.05 2303.18 777.498 2314.45C778.94 2325.71 785.203 2330.05 786.885 2330.29C788.572 2330.54 792.185 2332.03 796.032 2337.6C799.885 2343.17 819.207 2369.67 834.735 2376.91C850.262 2384.16 844.425 2369.28 842.498 2364.47C840.782 2360.16 832.872 2347.71 832.872 2347.71C832.872 2347.71 833.69 2353.89 830.648 2352.03C827.601 2350.16 796.674 2313.33 794.97 2302.18C794.97 2302.18 792.535 2301.94 790.737 2302.18Z" fill="#2A3764"/>
<path d="M831.302 2321.19C832.785 2310.38 837.583 2288.94 839.924 2278.74C834.729 2278.98 824.204 2273.91 818.355 2271.05C817.526 2275.1 812.885 2296.11 805.063 2299.46C800.895 2301.24 797.439 2301.94 794.958 2302.18H794.97C796.406 2311.59 818.676 2339.31 827.409 2348.84C828.57 2350.05 829.668 2351.14 830.648 2352.03C833.69 2353.89 832.872 2347.71 832.872 2347.71C831.565 2340.94 830.065 2330.23 831.302 2321.19Z" fill="#F8A46B"/>
<path d="M1023.27 2277.65C1023.27 2277.65 1018.13 2290.4 1025.36 2294.14C1034.32 2298.76 1042.89 2293.98 1043.95 2292.81C1044.99 2291.64 1045.68 2291.9 1051.71 2291.8C1057.74 2291.71 1086.92 2290.49 1100.17 2282.28C1113.41 2274.08 1099.61 2270.92 1095.12 2269.92C1091.11 2269.02 1077.99 2268.7 1077.99 2268.7C1077.99 2268.7 1082.91 2271.24 1079.99 2272.62C1077.07 2274.01 1034.42 2278.83 1025.45 2274.4C1025.45 2274.4 1024.02 2276.15 1023.27 2277.65Z" fill="#2A3764"/>
<path d="M1078 2268.7C1068.77 2267.09 1059.8 2260.8 1053.87 2255.2C1050.01 2251.54 1045.44 2245.78 1041.14 2240.17C1035.8 2243.67 1022.88 2244.66 1018.28 2244.34C1022.89 2249.89 1029.85 2259.43 1028.66 2265.25C1027.81 2269.37 1026.54 2272.38 1025.43 2274.42L1025.45 2274.4C1033.02 2278.14 1064.61 2275.28 1076.01 2273.48C1077.48 2273.21 1078.84 2272.92 1080 2272.62C1082.91 2271.24 1078 2268.7 1078 2268.7Z" fill="#F8A46B"/>
<path d="M609.568 1747.92C628.46 1719.84 678.668 1716.63 686.703 1717.89C686.703 1717.89 696.994 1731.68 714.047 1730.26C731.099 1728.82 733.141 1718.87 733.141 1718.87C733.141 1718.87 733.349 1716.57 751.12 1724.13C763.283 1729.3 774.726 1738.84 783.402 1751.72C788.041 1732.62 785.273 1717.14 764.923 1693.32C756.436 1683.39 781.561 1664.18 769.026 1622.59C758.979 1589.27 712.224 1568.9 672.992 1601.59C639.423 1629.57 651.605 1661.26 643.539 1681.01C635.471 1700.76 605.993 1697.62 595.955 1726.66C591.743 1738.86 597.958 1751.31 602.825 1759.06C605.029 1755.05 607.28 1751.32 609.568 1747.92Z" fill="#192646"/>
<path d="M686.702 1717.88C686.702 1717.88 696.993 1731.68 714.044 1730.25C730.506 1728.87 732.987 1719.55 733.139 1718.91C732.374 1713.31 731.604 1705.34 732.275 1699.03C730.401 1700.1 728.872 1700.73 727.879 1700.94C723.501 1701.88 711.499 1703.65 700.857 1691.76C696.24 1686.6 693.508 1682.03 691.716 1678.54C691.442 1684.73 690.175 1708.44 686.702 1717.88Z" fill="#F8A56A"/>
<path d="M686.147 1652.42C686.147 1652.42 684.583 1648.62 680.409 1649.04C676.235 1649.45 673.258 1653.94 676.387 1661.24C679.521 1668.54 685.277 1671.83 687.431 1671.48C689.591 1671.14 690.216 1679.86 700.857 1691.76C711.499 1703.65 723.501 1701.88 727.879 1700.94C728.948 1700.71 730.64 1700.01 732.707 1698.78C739.163 1694.93 747.54 1685.63 752.449 1669.31C759.53 1645.78 752.49 1619.58 747.242 1618.04C741.901 1616.47 737.803 1619.66 726.811 1624.77C708.598 1633.25 698.931 1630.12 697.501 1635.15C694.833 1644.55 687.005 1654.75 686.147 1652.42Z" fill="#F8A56A"/>
<path d="M732.707 1715.47C732.129 1710.32 731.732 1704.13 732.275 1699.03C730.401 1700.1 728.872 1700.73 727.879 1700.94C723.501 1701.88 711.499 1703.65 700.857 1691.76C696.754 1687.17 694.144 1683.07 692.358 1679.76L691.658 1679.86C691.658 1679.86 697.361 1716.33 732.707 1715.47Z" fill="#E0804F"/>
<path d="M637.316 1892.61C625.536 1889.26 620.131 1886.3 621.806 1879.54C622.635 1876.17 629.086 1865.84 636.301 1852.32C636.301 1852.32 636.587 1868.14 637.626 1880.56C637.859 1883.37 637.702 1887.66 637.316 1892.61ZM791.479 1889.69L811.157 1837.24C811.472 1836.39 812.278 1835.84 813.183 1835.84H814.397C806.744 1821.7 800.918 1792.3 793.434 1771.57C785.128 1748.57 768.888 1731.68 751.118 1724.13C733.349 1716.57 733.145 1718.87 733.145 1718.87C733.145 1718.87 731.102 1728.82 714.044 1730.25C696.993 1731.68 686.702 1717.88 686.702 1717.88C678.669 1716.62 628.461 1719.84 609.568 1747.92C591.148 1775.29 575.15 1824.26 565.89 1865.11C556.631 1905.95 563.916 1929.77 581.686 1936.92C599.457 1944.07 635.612 1939.44 691.167 1939.44C746.729 1939.44 778.8 1936.11 778.8 1936.11C780.026 1915.48 778.899 1874.12 778.899 1874.12C779.454 1875.02 785.811 1882.8 791.479 1889.69Z" fill="#5A79C5"/>
<path d="M631.619 1860.89C631.648 1860.83 631.677 1860.78 631.706 1860.73L631.619 1860.89Z" fill="#4E7CB1"/>
<path d="M609.396 1940.82L609.383 1940.86C610.208 1940.87 611.065 1940.88 611.915 1940.89C611.084 1940.87 610.237 1940.84 609.396 1940.82Z" fill="#4E7CB1"/>
<path d="M633.884 1856.78C633.931 1856.71 633.971 1856.63 634.012 1856.55C633.971 1856.63 633.931 1856.71 633.884 1856.78Z" fill="#4E7CB1"/>
<path d="M690.052 1939.44C690.058 1939.44 690.076 1939.44 690.087 1939.44C690.076 1939.44 690.07 1939.44 690.058 1939.44H690.052ZM690.432 1939.44C690.438 1939.44 690.432 1939.44 690.438 1939.44H690.432Z" fill="#6C81BB"/>
<path d="M689.323 1939.44H689.328C689.34 1939.44 689.352 1939.44 689.363 1939.44H689.369C689.352 1939.44 689.34 1939.44 689.323 1939.44ZM690.041 1939.44C690.046 1939.44 690.046 1939.44 690.052 1939.44H690.058C690.052 1939.44 690.046 1939.44 690.041 1939.44ZM690.414 1939.44C690.42 1939.44 690.426 1939.44 690.432 1939.44H690.438C690.443 1939.44 690.449 1939.44 690.455 1939.44C690.443 1939.44 690.426 1939.44 690.414 1939.44Z" fill="#1B1A1F"/>
<path d="M643.411 1940.34C670.573 1939.16 712.357 1936.75 713.023 1934.06C713.84 1930.79 713.437 1913.44 710.168 1911.8C706.899 1910.17 667.339 1900.37 648.139 1895.47C644.082 1894.43 640.474 1893.51 637.316 1892.61C637.579 1889.25 637.737 1886.19 637.737 1883.69C637.737 1882.52 637.702 1881.46 637.626 1880.56C636.587 1868.16 636.301 1852.38 636.301 1852.32C640.48 1844.49 644.911 1835.6 648.653 1826.37H648.659C648.659 1826.37 641.601 1869.73 661.758 1879.54C681.909 1889.34 708.236 1900.1 713.385 1904.59C718.539 1909.08 727.938 1918.54 734.68 1919.16C741.416 1919.77 749.793 1922.43 753.879 1924.67C757.966 1926.92 757.966 1933.33 770.219 1934.21C770.761 1934.25 771.287 1934.27 771.783 1934.27C775.005 1934.27 777.317 1933.5 778.981 1932.42C778.94 1933.42 778.893 1934.38 778.841 1935.32C778.829 1935.58 778.811 1935.85 778.8 1936.11C778.8 1936.11 750.861 1939.01 701.967 1939.4C701.751 1939.4 701.529 1939.4 701.319 1939.4C701.307 1939.4 701.307 1939.4 701.301 1939.4C700.694 1939.41 700.075 1939.41 699.456 1939.41C699.451 1939.41 699.445 1939.41 699.439 1939.41C699.346 1939.42 699.258 1939.42 699.17 1939.42C699.153 1939.42 699.13 1939.42 699.118 1939.42C699.03 1939.42 698.943 1939.42 698.855 1939.42C698.838 1939.42 698.826 1939.42 698.808 1939.42C698.417 1939.42 698.038 1939.43 697.647 1939.43C697.618 1939.43 697.588 1939.43 697.559 1939.43C697.145 1939.43 696.736 1939.43 696.322 1939.43C696.31 1939.43 696.298 1939.43 696.287 1939.43C695.884 1939.43 695.481 1939.44 695.072 1939.44C695.055 1939.44 695.037 1939.44 695.02 1939.44C694.921 1939.44 694.821 1939.44 694.722 1939.44C694.716 1939.44 694.716 1939.44 694.711 1939.44C694.635 1939.44 694.547 1939.44 694.471 1939.44C694.401 1939.44 694.331 1939.44 694.261 1939.44C694.203 1939.44 694.144 1939.44 694.08 1939.44C694.074 1939.44 694.063 1939.44 694.057 1939.44C693.998 1939.44 693.934 1939.44 693.876 1939.44C693.817 1939.44 693.759 1939.44 693.701 1939.44C693.613 1939.44 693.531 1939.44 693.45 1939.44C693.432 1939.44 693.42 1939.44 693.409 1939.44C693.368 1939.44 693.327 1939.44 693.286 1939.44C693.216 1939.44 693.14 1939.44 693.07 1939.44C693.029 1939.44 692.994 1939.44 692.959 1939.44C692.948 1939.44 692.942 1939.44 692.936 1939.44C692.895 1939.44 692.86 1939.44 692.825 1939.44C692.808 1939.44 692.79 1939.44 692.773 1939.44C692.732 1939.44 692.685 1939.44 692.644 1939.44C692.621 1939.44 692.603 1939.44 692.58 1939.44C692.568 1939.44 692.557 1939.44 692.545 1939.44C692.504 1939.44 692.469 1939.44 692.434 1939.44C692.399 1939.44 692.364 1939.44 692.329 1939.44C692.317 1939.44 692.3 1939.44 692.288 1939.44C692.195 1939.44 692.101 1939.44 692.008 1939.44C691.99 1939.44 691.973 1939.44 691.955 1939.44C691.932 1939.44 691.909 1939.44 691.885 1939.44C691.862 1939.44 691.839 1939.44 691.815 1939.44C691.599 1939.44 691.389 1939.44 691.167 1939.44C691.056 1939.44 690.945 1939.44 690.835 1939.44C690.817 1939.44 690.799 1939.44 690.782 1939.44C690.677 1939.44 690.566 1939.44 690.455 1939.44C690.449 1939.44 690.443 1939.44 690.438 1939.44C690.432 1939.44 690.438 1939.44 690.432 1939.44C690.426 1939.44 690.42 1939.44 690.414 1939.44C690.303 1939.44 690.192 1939.44 690.087 1939.44C690.076 1939.44 690.058 1939.44 690.052 1939.44C690.046 1939.44 690.046 1939.44 690.041 1939.44C689.819 1939.44 689.591 1939.44 689.369 1939.44H689.363C689.352 1939.44 689.34 1939.44 689.328 1939.44H689.323C689.212 1939.44 689.101 1939.44 688.984 1939.44C688.978 1939.44 688.972 1939.44 688.966 1939.44C671.927 1939.48 656.761 1939.94 643.411 1940.34Z" fill="#455FA1"/>
<path d="M626.494 1888.62V1888.62C629.103 1890.05 632.722 1891.3 637.31 1892.61C632.716 1891.3 629.109 1890.05 626.494 1888.62Z" fill="#4E7CB1"/>
<path d="M624.316 1940.83C624.97 1940.82 625.624 1940.8 626.289 1940.79C625.618 1940.8 624.97 1940.82 624.316 1940.83Z" fill="#4E7CB1"/>
<path d="M763.126 1927.2C762.951 1926.63 761.994 1924.33 754.615 1918.72C747.236 1913.12 737.57 1910.09 728.685 1911.15C720.127 1912.18 712.562 1914.95 712.013 1915.16C713.175 1919.41 713.519 1926.56 713.344 1930.9C718.808 1931.56 726.986 1930.86 728.043 1931.31C730.127 1932.2 739.653 1934.99 742.385 1934C745.117 1933.01 744.218 1930.89 742.835 1930.92C741.451 1930.96 737.943 1929.5 735.655 1927.54C733.367 1925.57 734.114 1923.36 734.114 1923.36C734.114 1923.36 745.001 1923.15 747.873 1924.01C750.751 1924.86 753.833 1928.83 755.963 1929.83C758.088 1930.82 759.513 1930.11 759.513 1930.11C759.513 1930.11 761.165 1930.69 762.192 1930.16C763.219 1929.62 762.881 1928.41 762.881 1928.41C762.881 1928.41 763.307 1927.77 763.126 1927.2Z" fill="#F7AB8D"/>
<path d="M813.183 1835.84C812.278 1835.84 811.472 1836.39 811.157 1837.24L775.064 1933.44H717.891C715.27 1933.44 713.14 1935.56 713.14 1938.18V1939.87C713.14 1940.45 713.612 1940.91 714.184 1940.91H787.036H811.682H926.214C928.812 1940.91 931.106 1939.25 931.911 1936.79L964.064 1838.33C964.467 1837.1 963.551 1835.84 962.255 1835.84L813.183 1835.84Z" fill="#EF324D"/>
<path d="M713.14 1938.18V1939.87C713.14 1940.45 713.612 1940.91 714.184 1940.91H771.649L775.064 1933.44H717.891C715.27 1933.44 713.14 1935.56 713.14 1938.18Z" fill="#D02A3E"/>
<path d="M881.44 1888.14C878.977 1891.92 874.529 1893.38 871.505 1891.41C868.481 1889.44 868.032 1884.77 870.501 1881C872.964 1877.22 877.412 1875.75 880.436 1877.72C883.46 1879.7 883.91 1884.36 881.44 1888.14Z" fill="white"/>
<path d="M853.759 1927.74C819.446 1923.38 818.629 1908.53 821.489 1875.86C824.35 1843.19 813.183 1835.84 813.183 1835.84C812.278 1835.84 811.472 1836.39 811.157 1837.24L775.064 1933.44L771.649 1940.91H787.036H811.682H919.553C904.545 1935.18 880.471 1931.13 853.759 1927.74Z" fill="#E1334E"/>
<path d="M713.023 1934.06C713.84 1930.79 713.431 1913.44 710.168 1911.8C706.899 1910.17 667.339 1900.37 648.139 1895.47C628.94 1890.56 619.681 1888.11 621.806 1879.54C623.931 1870.96 662.575 1817.04 657.263 1780.7C651.951 1744.35 621.806 1735.48 621.806 1735.48C617.043 1738.95 612.837 1743.06 609.568 1747.92C591.148 1775.29 575.15 1824.26 565.89 1865.11C556.631 1905.95 563.916 1929.77 581.686 1936.92C586.836 1938.99 593.54 1940.07 601.802 1940.56C605.289 1940.7 608.783 1940.82 612.174 1940.9C621.152 1940.98 631.555 1940.69 643.387 1940.34C670.549 1939.16 712.357 1936.75 713.023 1934.06Z" fill="#5A79C5"/>
<path d="M825.792 2054.08H594.303V2087.97H846.672C850.268 2087.97 853.181 2085.05 853.181 2081.46C853.181 2066.33 840.922 2054.08 825.792 2054.08Z" fill="#8294D3"/>
<path d="M1522.21 1836.36C1523.12 1836.36 1523.92 1836.92 1524.23 1837.76L1560.33 1933.97H1617.5C1620.12 1933.97 1622.25 1936.09 1622.25 1938.71V1940.4C1622.25 1940.98 1621.78 1941.44 1621.21 1941.44H1409.17C1406.58 1941.44 1404.29 1939.77 1403.48 1937.31L1371.32 1838.86C1370.92 1837.63 1371.84 1836.36 1373.14 1836.36H1522.21Z" fill="#F68835"/>
<path d="M1622.25 1938.71V1940.4C1622.25 1940.98 1621.78 1941.44 1621.21 1941.44H1563.74L1560.33 1933.97H1617.5C1620.12 1933.97 1622.25 1936.09 1622.25 1938.71Z" fill="#ED6C1E"/>
<path d="M1453.94 1888.67C1456.41 1892.44 1460.86 1893.91 1463.88 1891.94C1466.91 1889.96 1467.36 1885.31 1464.88 1881.52C1462.42 1877.75 1457.97 1876.28 1454.95 1878.26C1451.93 1880.23 1451.48 1884.89 1453.94 1888.67Z" fill="white"/>
<path d="M1563.73 1941.45H1415.83C1430.83 1935.71 1454.91 1931.65 1481.62 1928.26C1515.94 1923.91 1516.76 1909.07 1513.89 1876.39C1511.04 1843.72 1522.2 1836.36 1522.2 1836.36C1523.11 1836.36 1523.91 1836.92 1524.22 1837.76L1560.32 1933.97L1563.73 1941.45Z" fill="#F57D2B"/>
<path d="M1747.97 1967.71H711.649V1940.83H1747.97V1967.71Z" fill="#354F60"/>
<path d="M783.207 1967.71H760.091V2388.34H783.207V1967.71Z" fill="#7F888D"/>
<path d="M1672.08 1967.71H1648.96V2396.67H1672.08V1967.71Z" fill="#7F888D"/>
</g>
<defs>
<linearGradient id="paint0_linear_101_3" x1="1253.5" y1="2678.5" x2="1253.5" y2="187.5" gradientUnits="userSpaceOnUse">
<stop offset="0.14577" stop-color="#D2DAF2"/>
<stop offset="1" stop-color="white" stop-opacity="0"/>
</linearGradient>
<clipPath id="clip0_101_3">
<rect width="2425" height="2677" fill="white"/>
</clipPath>
</defs>
</svg>
