<svg width="648" height="648" viewBox="0 0 648 648" fill="none" xmlns="http://www.w3.org/2000/svg">
<path d="M0 160.541C0 71.8764 71.8764 0 160.541 0H487.459C576.124 0 648 71.8764 648 160.541V487.459C648 576.124 576.124 648 487.459 648H160.541C71.8764 648 0 576.124 0 487.459V160.541Z" fill="#186DFB"/>
<path fill-rule="evenodd" clip-rule="evenodd" d="M326.908 209.063L227.798 417.284C246.684 407.751 266.234 399.099 285.99 391.773C323.687 377.795 365.756 367.339 406.857 366.99L326.908 209.063ZM440.919 458.696C428.179 441.505 370.489 446.112 314.439 466.896C254.324 489.186 195.592 526.405 158.338 559.369C140.999 574.711 118.227 571.307 104.972 560.812C92.118 550.634 84.1307 530.841 93.3886 511.39L288.401 101.688C303.104 70.7987 347.321 70.2667 362.776 100.796L517.241 405.916L543.971 458.696C543.971 458.696 547.515 467.566 547.446 470.43C546.307 517.79 492.989 509.706 480.27 500.527C467.551 491.349 440.919 458.696 440.919 458.696ZM326.503 118.776L326.532 118.762L326.503 118.776Z" fill="white"/>
</svg>
